<mxfile host="app.diagrams.net" modified="2023-11-06T08:16:40.088Z" agent="Mozilla/5.0 (Macintosh; Intel Mac OS X 10_15_7) AppleWebKit/605.1.15 (KHTML, like Gecko) Version/16.6 Safari/605.1.15" version="22.0.8" etag="K73kfW6qdr29DR7WtsZg" type="github">
  <diagram name="Page-1" id="uVKwgsqWOkh6JcnR4BWs">
    <mxGraphModel>
      <root>
        <mxCell id="0" />
        <mxCell id="1" parent="0" />
      </root>
    </mxGraphModel>
  </diagram>
</mxfile>
